<svg xmlns="http://www.w3.org/2000/svg" width="561.182" height="235.275" viewBox="0 0 561.182 235.275"><path d="M40.278 35.72c0 .807-.149 1.384-.446 1.733-.297.347-.591.521-1.158.521-.551 0-.86-.184-1.162-.549-.303-.366-.454-.934-.454-1.706V27.1H34.71v8.62c0 1.346.376 2.387 1.128 3.123.753.737 1.619 1.105 2.836 1.105 1.218 0 2.062-.365 2.815-1.101.752-.733 1.128-1.775 1.128-3.128V27.1h-2.339v8.62zm10.445-.548l-.051.019-3.676-8.091H44.64v12.666h2.356v-8.082l.049-.017 3.678 8.099h2.339V27.1h-2.339zm4.701-8.072h2.339v12.666h-2.339zm9.688 12.666L68.476 27.1h-2.471l-2.008 9.455-.091.461h-.049l-.092-.485-1.992-9.431h-2.47l3.362 12.666zm11.886-1.975h-4.753v-3.584h4.042v-1.974h-4.042v-3.158h4.736V27.1h-7.09v12.667h7.107zm6.914-2.541c.245.348.367.839.367 1.471v.861c0 .436.025.86.075 1.277.049.418.17.72.363.906h2.43v-.184c-.194-.18-.328-.468-.406-.864a5.991 5.991 0 0 1-.114-1.119v-.895c0-.766-.137-1.404-.41-1.915-.272-.511-.718-.876-1.334-1.097.54-.282.949-.665 1.23-1.143.282-.478.422-1.049.422-1.71 0-1.171-.337-2.085-1.012-2.744-.676-.658-1.604-.988-2.79-.988h-3.924v12.658h2.346v-5.038h1.702c.458.003.808.178 1.055.524m-1.187-2.495h-1.57v-3.672h1.578c.474 0 .836.173 1.083.514.247.342.371.803.371 1.383 0 .569-.124 1.006-.371 1.314-.248.308-.612.461-1.091.461m10.201-.384c-.722-.329-1.229-.629-1.521-.899a1.347 1.347 0 0 1-.438-1.031c0-.451.13-.828.393-1.127.261-.299.627-.447 1.095-.447.502 0 .89.179 1.165.54.276.359.413.828.413 1.409h2.282l.016-.053c.022-1.107-.326-2.025-1.041-2.754-.717-.728-1.649-1.091-2.794-1.091-1.13 0-2.058.325-2.785.978-.728.652-1.091 1.498-1.091 2.536 0 1.05.312 1.866.938 2.448.625.583 1.563 1.104 2.814 1.562.611.278 1.038.562 1.28.849.244.287.365.679.365 1.172 0 .475-.12.851-.361 1.129-.239.279-.606.417-1.102.417-.634 0-1.108-.17-1.421-.511-.314-.344-.471-.906-.471-1.689h-2.29l-.017.053c-.026 1.316.379 2.327 1.218 3.031.842.704 1.835 1.058 2.981 1.058 1.15 0 2.073-.312 2.768-.931.695-.621 1.042-1.48 1.042-2.577 0-1.06-.289-1.902-.865-2.525s-1.433-1.14-2.573-1.547m5.457-5.271h2.338v12.666h-2.338zm3.803 1.975h2.693v10.692h2.347V29.075h2.712V27.1h-7.752zm15.397-5.142l-.024-.051h-2.473l-1.454 2.308 1.893.006zm-3.736 13.858v-3.584h4.042v-1.974h-4.042v-3.158h4.736V27.1h-7.091v12.667h7.107v-1.976zm-75.51 4.488h-3.635v12.665h3.635c1.235 0 2.254-.489 3.059-1.47.804-.979 1.206-2.244 1.206-3.792V47.55c0-1.549-.402-2.814-1.206-3.797s-1.823-1.474-3.059-1.474m1.917 7.4c0 .993-.176 1.789-.532 2.39-.355.601-.862.901-1.516.901h-1.149v-8.717h1.149c.654 0 1.161.3 1.516.896.356.599.532 1.392.532 2.378v2.152zm6.739-.293h4.041v-1.975h-4.041v-3.159h4.734v-1.973h-7.089v12.665h7.107V52.97h-4.752zm12.747-7.107h-2.355v12.665h6.457V52.97H59.74zm7.542 5.428h-.05l-1.985-5.428h-2.568l3.379 8.003v4.662h2.349v-4.506l3.436-8.159H69.29zm9.375-5.61c-1.267 0-2.281.421-3.04 1.264-.761.845-1.14 2.007-1.14 3.485v3.548c0 1.485.379 2.646 1.14 3.481.759.834 1.776 1.253 3.049 1.253s2.292-.419 3.058-1.253c.765-.836 1.148-1.996 1.148-3.481v-3.548c0-1.479-.384-2.641-1.155-3.485-.772-.843-1.791-1.264-3.06-1.264m1.877 8.299c0 .919-.16 1.608-.48 2.067-.319.46-.782.688-1.388.688-.611 0-1.075-.228-1.389-.688-.312-.459-.47-1.148-.47-2.067v-3.577c0-.913.153-1.599.462-2.058.309-.461.772-.69 1.388-.69.613 0 1.078.231 1.397.693.32.464.48 1.147.48 2.055v3.577zm10.462-.045l-.05.018-3.677-8.09h-2.356v12.664h2.356v-8.08l.05-.017 3.677 8.097h2.338V42.279h-2.338zm23.131 91.924l-.019 27.19c0 19.518-15.883 35.401-35.424 35.405-.069 0-.136-.004-.203-.006h-.012c-.068.002-.134.006-.202.006-19.542-.004-35.426-15.889-35.426-35.405l-.017-27.19H34.3c.01 11.768.019 27.03.019 27.193 0 23.116 18.811 41.926 41.933 41.926.076 0 .149-.005.223-.005.075 0 .147.005.223.005 23.123 0 41.933-18.81 41.933-41.926 0-.16.009-15.414.018-27.193h-6.522z"/><path d="M99.046 142.275c-.01 11.852-.018 27.126-.018 27.17 0 12.315-10.018 22.335-22.331 22.335-.073 0-.143-.006-.216-.009v-.003s-.005.003-.009.003c0 0-.001-.003-.003-.003v.003c-.072.003-.143.009-.215.009-12.314 0-22.331-10.02-22.331-22.335 0-.044-.009-15.323-.019-27.17h-6.567l.013 20.296.006 6.878c0 15.935 12.969 28.898 28.912 28.898.07 0 .137-.003.207-.003.068 0 .137.003.207.003 15.941 0 28.913-12.965 28.913-28.898 0-.053.001-2.803.005-6.878l.013-20.296h-6.567z"/><path d="M85.884 142.275l-.019 26.957c0 5.168-4.183 9.378-9.342 9.414h-.097c-5.157-.036-9.342-4.246-9.342-9.414 0-.043-.009-14.9-.019-26.957h-6.582c.01 12.057.019 26.914.019 26.957 0 8.813 7.161 15.98 15.967 15.995v.003h.011l.001-.003c8.807-.015 15.968-7.183 15.968-15.995 0-.043.009-14.906.019-26.957h-6.584zm-51.416-12.977h84.191v6.49H34.468zm0-12.979h84.191v6.49H34.468zm86.174-47.87s-.134-.244-.406-.542c-.269-.304-.949-.714-1.276-1.034-.323-.334-.712-.853-.903-.986-.184-.138-.574-.753-.753-.894-.199-.137-.417-1.142-.443-1.253-.021-.107-.1-.413-.4-.572-.17-.072-.635-.381-.939-.623-.293-.246-1.048-.981-1.048-.981s-.198-1.223-.491-1.87c-.295-.657-.414-.9-.554-1.146-.13-.247-.216-.297-.289-.68 0 0-.411-.031-.793.214 0 0-.786-.598-1.57-1.058-.791-.467-1.721-.951-2.105-1.027-.371-.086-.88-.381-1.077-.572 0 0-.557-.027-1.009.05-.325.042-1.401.152-1.972.238-.568.075-1.971.311-2.291.333-.677.047-.817.099-1.835.291 0 0-.806.142-1.08.247-.276.109-1.145.447-1.748.522-.661.08-1.352.083-2.148.211-.357.064-1.706.603-2.342.751-.286.07-.671.115-.671.115s.13.451.482.532c0 0-.188.404-.625.618-.435.225-.892.41-1.488.632-.606.209-1.553.589-1.798.783 0 0 .19.378.562.579 0 0 .09.052-.423.313-.522.279-1.701.769-2.234 1.012-.552.248-1.296.689-1.662.869-.52.271-.571.284-1.067.594-.486.296-.239.279-.239.279s.244.054.589.079c.357.027.547.165.547.165s.038.189-.211.411c-.244.215-.599.7-1.439 1.276-.417.282-.78.607-1.238.929-.462.319-.929.869-1.093.98l.492.434-.074.34c-.213.133-.48.281-.818.414-.382.168-3.65.608-7.427.562-6.309-.087-8.048-.9-11.26-1.046-3.219-.15-5.606.563-8.544 1.458a8.678 8.678 0 0 0-1.374.527c-1.235.256-2.481.6-3.623 1.04-4.087 1.567-11.221 7.473-13.218 8.313-1.969.832-3.079.872-4.478.697-1.397-.172-1.948-.524-1.948-.524s-.713-1.516-1.533-2.134c-1.069-.786-3.702-1.718-3.702-1.718s-.459 1.729.475 3.396c1.123 1.987 3.317 1.862 4.11 2.187 1.399.563 4.736 1.239 7.551.109 2.526-1.016 5.088-2.697 6.912-3.722 1.817-1.018 4.73-1.903 7.183-2.178-.114.426-.238.843-.369 1.213-.687 2.087-3.223 6.515-3.74 7.251-.597.866-2.968 3.738-3.387 4.088-.408.357-1.413.754-2.673.986-1.385.258-5.36.657-5.36.657s-.701 3.553-1.582 5.722c-.359.882-1.209 2.636-1.209 2.636s1.492 1.391 1.966 3.132c.233.446.624 1.179.93 1.407v6.168h.006v.178h84.191v-6.488h-.002c.157-.494.384-1.61-.587-2.074-1.257-.6-.246-1.075-3.162-2.181-.835-.318-2.228-.765-2.7-1.154-.469-.381-2.995-3.911-4.248-5.397-1.263-1.497-3.837-4.915-3.837-4.915l-.567-1.35.102-1.02c.159-.167.331-.331.481-.522.457-.49 1.152-1.218 1.349-1.623.479-.97.309-.023.605-.55.222-.4 1.087-.877 1.447-1.106.354-.215.882-.869.882-.869s.013.39.16.767c0 0 .252-.208.653-.699.401-.487.264-.534.755-1.029.492-.485.841-1.456 1.151-2.089.318-.621.503-.803.585-.938 0 0 .208.498.345.849 0 0 .322-.311.457-.621.132-.311.224-.714.446-1.067.222-.36.39-.823.605-.915.227-.092.65-.354 1.104-.377.33-.016.784.173 1.195.258.391.095.576-.085.846.267.264.357.625.543.625.543s.006-.056.331-.219c.33-.167.349-.162.655-.38.302-.221.254-.33.482-.549.251-.214.392-.459.492-.872.113-.399-.073-.642.124-.832.193-.187.583-.196.782-.668.188-.457.131-.54.214-.618.079-.083.13-.41.13-.41s.551-.46.629-.84c.078-.379.161-.519.332-.684 0-.004-.144-.553-.878-1.006M76.793 89.907c.589.271 2.061.904 3.655 1.511.158.416.275 1.017.225 1.854-.145 2.091-2.219 4.689-2.219 4.689s1.05 2.591 1.35 2.969c.294.37 1.254 1.144 1.578 1.767.092.186.208.437.3.637h-5.697c.094-.778-.417-1.104-.554-1.237-.311-.308-.581-.915-1.342-1.184-2.661-.948-2.619-.564-3.387-1.18-.522-.416-1.844-1.293-2.143-1.832-.297-.538-.836-2.983-.845-5.072a28.418 28.418 0 0 0-.175-3.212c2.452-.425 6.319-1.033 9.254.29m-39.274 5.619c.854-.354 2.739.37 4.623.026 2.878-.523 6.984-1.96 8.368-2.582 1.257-.548 3.501-2.704 4.196-3.275.683-.578 1.401-.743 1.401-.743s.834.896 2.511 2.38c1.682 1.489 2.25 2.181 2.836 2.664.573.484 1.276 1.471 1.392 1.864.462 1.482.298 3.948.298 3.948s2.62.929 3.46 1.678c.592.525 1.088 1.386 1.33 1.848H41.117c.067-.445.098-1.435-.87-1.775-.704-.298-.561-.556-2.051-1.072-.599-.214-.934-.462-1.242-1.241-.298-.784-.302-2.082-.302-2.082s.134-1.34.867-1.638m66.66 2.524s2.712 1.033 3.361 1.943c.422.596 2.881 1.294 2.881 1.294s.751.053 1.728.947c.746.684.986.966 1.453 1.099H88.694c.077-.406.1-1.081-.503-1.425-.397-.223-.741-.657-1.187-.873-1.718-.82-1.906-.521-2.625-1.095-.404-.297-.673-1.614-.673-1.614s3.143-3.1 3.744-3.883c.755-.977 1.053-1.367 1.391-1.85 2.364-.222 4.844-.647 5.697-1.135.242-.145.462-.274.671-.396.269.152.507.291.714.416 1.26.747 4.436 2.085 5.554 2.976 1.122.902 2.702 3.596 2.702 3.596m70.564-73.012h1.096v186.355h-1.096zm55.515 54.759h90.524v12.284h-90.524V79.797zm0 35.86v-12.038h90.655v12.038h-90.655zm90.524 12.032v12.28h-90.524v-12.28h90.524zm12.28-47.893h67.562c15.308 0 22.962 4.098 22.962 12.283H333.06V79.796h.002zm0 23.824h23.502v12.032h-23.502V103.62zm23.501 24.071v12.274l-23.502.129v-12.403h23.502zm44.06-24.071h23.101v12.032h-23.101V103.62zm0 24.071h22.964v12.28h-22.964v-12.28zm126.095 0c0 8.182-7.742 12.274-23.232 12.274h-67.29v-12.274h90.522zm-67.294-47.897h67.294v12.281h-90.523c-.001-8.181 7.745-12.281 23.229-12.281m67.294 35.859h-90.522v-12.03h90.522v12.03zm-145.344 37.744h8.861v1.432h-7.073v5.935h6.713v1.435h-6.713v6.409h7.383v1.435h-9.171zm12.727 0h2.253l9.204 14.639h.046v-14.639h1.793v16.646h-2.412l-9.047-14.36h-.05v14.36h-1.787zm17.026 14.517c1.06.618 2.308.979 3.99.979 2.228 0 4.069-1.047 4.069-3.409 0-3.266-8.293-3.672-8.293-8.033 0-2.672 2.539-4.34 5.728-4.34.887 0 2.308.119 3.555.555l-.284 1.499c-.81-.405-2.078-.625-3.3-.625-1.866 0-3.911.722-3.911 2.863 0 3.343 8.294 3.36 8.294 8.225 0 3.365-3.135 4.698-5.938 4.698-1.762 0-3.131-.336-4.092-.716l.182-1.696zm20.504-14.517h4.481c6.477 0 9.043 3.437 9.043 8.301 0 6.03-4.377 8.343-10.366 8.343h-3.158v-16.644zm1.782 15.211h1.479c5.134 0 8.477-1.906 8.477-7.01 0-5.074-3.293-6.771-7.332-6.771h-2.624v13.781zm15.656-15.211h8.866v1.432h-7.078v5.935h6.713v1.435h-6.713v6.409h7.389v1.435h-9.177zm20.008 0h1.791v15.211h7.261v1.435h-9.052zm13.583 9.589l-6.713-9.586h2.076l5.523 8.133 5.676-8.133h1.942l-6.713 9.586v7.051h-1.791zm18.174-9.871c5.441 0 8.008 4.097 7.955 8.6-.053 5.104-2.75 8.608-7.955 8.608-5.209 0-7.908-3.504-7.965-8.608-.046-4.504 2.518-8.6 7.965-8.6m-6.171 8.599c0 3.531 1.918 7.18 6.171 7.18 4.248 0 6.171-3.647 6.171-7.18 0-3.523-1.923-7.167-6.171-7.167-4.253 0-6.171 3.644-6.171 7.167m17.521-8.317h2.251l9.204 14.639h.051v-14.639h1.791v16.646h-2.409l-9.051-14.36h-.053v14.36h-1.784z"/></svg>